name Walk3.mot
datacolumns 19
datarows 25
range 2.85400000 2.87800000
endheader

                time	   L_ground_force_vx	   L_ground_force_vy	   L_ground_force_vz	   L_ground_force_px	   L_ground_force_py	   L_ground_force_pz	   R_ground_force_vx	   R_ground_force_vy	   R_ground_force_vz	   R_ground_force_px	   R_ground_force_py	   R_ground_force_pz	   L_ground_torque_x	   L_ground_torque_y	   L_ground_torque_z	   R_ground_torque_x	   R_ground_torque_y	   R_ground_torque_z	
          2.85400000	         27.90518803	        668.49918454	         42.25597852	         -0.42317894	          0.00000000	         -0.05230858	         -0.01153916	          0.18081525	          0.02051765	          0.00005626	          0.00000000	          0.00005786	          0.00000000	          0.31500313	          0.00000000	          0.00000000	         -0.00632514	          0.00000000	
          2.85500000	         28.28153770	        669.88807013	         42.29088849	         -0.42282437	          0.00000000	         -0.05234093	         -0.01298546	          0.19171417	          0.02161399	          0.00005904	          0.00000000	          0.00006050	          0.00000000	          0.32000478	          0.00000000	          0.00000000	         -0.00658722	          0.00000000	
          2.85600000	         28.65686726	        671.28050872	         42.32783894	         -0.42246612	          0.00000000	         -0.05237425	         -0.01451253	          0.20283411	          0.02272294	          0.00006184	          0.00000000	          0.00006312	          0.00000000	          0.32536301	          0.00000000	          0.00000000	         -0.00684646	          0.00000000	
          2.85700000	         29.03107274	        672.67596330	         42.36679833	         -0.42210415	          0.00000000	         -0.05240854	         -0.01612157	          0.21414968	          0.02384109	          0.00006463	          0.00000000	          0.00006573	          0.00000000	          0.33107213	          0.00000000	          0.00000000	         -0.00710152	          0.00000000	
          2.85800000	         29.40404835	        674.07388977	         42.40773135	         -0.42173842	          0.00000000	         -0.05244382	         -0.01781354	          0.22563234	          0.02496468	          0.00006743	          0.00000000	          0.00006831	          0.00000000	          0.33712552	          0.00000000	          0.00000000	         -0.00735094	          0.00000000	
          2.85900000	         29.77568676	        675.47373755	         42.45059873	         -0.42136890	          0.00000000	         -0.05248008	         -0.01958917	          0.23725018	          0.02608959	          0.00007020	          0.00000000	          0.00007085	          0.00000000	          0.34351561	          0.00000000	          0.00000000	         -0.00759318	          0.00000000	
          2.86000000	         30.14587900	        676.87495087	         42.49535699	         -0.42099556	          0.00000000	         -0.05251733	         -0.02144890	          0.24896779	          0.02721128	          0.00007294	          0.00000000	          0.00007333	          0.00000000	          0.35023386	          0.00000000	          0.00000000	         -0.00782658	          0.00000000	
          2.86100000	         30.51451427	        678.27697108	         42.54195833	         -0.42061836	          0.00000000	         -0.05255556	         -0.02339287	          0.26074604	          0.02832482	          0.00007563	          0.00000000	          0.00007574	          0.00000000	          0.35727084	          0.00000000	          0.00000000	         -0.00804934	          0.00000000	
          2.86200000	         30.88147964	        679.67923984	         42.59035047	         -0.42023729	          0.00000000	         -0.05259476	         -0.02542087	          0.27254193	          0.02942486	          0.00007826	          0.00000000	          0.00007807	          0.00000000	          0.36461621	          0.00000000	          0.00000000	         -0.00825956	          0.00000000	
          2.86300000	         31.24666001	        681.08120285	         42.64047650	         -0.41985232	          0.00000000	         -0.05263490	         -0.02753233	          0.28430838	          0.03050559	          0.00008081	          0.00000000	          0.00008028	          0.00000000	          0.37225893	          0.00000000	          0.00000000	         -0.00845520	          0.00000000	
          2.86400000	         31.60993816	        682.48231337	         42.69227469	         -0.41946343	          0.00000000	         -0.05267597	         -0.02972630	          0.29599406	          0.03156077	          0.00008327	          0.00000000	          0.00008237	          0.00000000	          0.38018739	          0.00000000	          0.00000000	         -0.00863410	          0.00000000	
          2.86500000	         31.97119488	        683.88203487	         42.74567834	         -0.41907060	          0.00000000	         -0.05271792	         -0.03200137	          0.30754321	          0.03258366	          0.00008561	          0.00000000	          0.00008431	          0.00000000	          0.38838973	          0.00000000	          0.00000000	         -0.00879396	          0.00000000	
          2.86600000	         32.33030920	        685.27984210	         42.80061553	         -0.41867381	          0.00000000	         -0.05276073	         -0.03435570	          0.31889543	          0.03356704	          0.00008781	          0.00000000	          0.00008609	          0.00000000	          0.39685399	          0.00000000	          0.00000000	         -0.00893237	          0.00000000	
          2.86700000	         32.68715862	        686.67522060	         42.85700895	         -0.41827303	          0.00000000	         -0.05280435	         -0.03678691	          0.32998555	          0.03450316	          0.00008986	          0.00000000	          0.00008767	          0.00000000	          0.40556809	          0.00000000	          0.00000000	         -0.00904674	          0.00000000	
          2.86800000	         33.04161955	        688.06766456	         42.91477552	         -0.41786826	          0.00000000	         -0.05284874	         -0.03929211	          0.34074340	          0.03538378	          0.00009173	          0.00000000	          0.00008904	          0.00000000	          0.41451974	          0.00000000	          0.00000000	         -0.00913439	          0.00000000	
          2.86900000	         33.39356808	        689.45667419	         42.97382613	         -0.41745947	          0.00000000	         -0.05289385	         -0.04186784	          0.35109370	          0.03620010	          0.00009338	          0.00000000	          0.00009017	          0.00000000	          0.42369632	          0.00000000	          0.00000000	         -0.00919245	          0.00000000	
          2.87000000	         33.74288113	        690.84175316	         43.03406537	         -0.41704668	          0.00000000	         -0.05293965	         -0.04451001	          0.36095581	          0.03694277	          0.00009481	          0.00000000	          0.00009103	          0.00000000	          0.43308489	          0.00000000	          0.00000000	         -0.00921794	          0.00000000	
          2.87100000	         34.08943771	        692.22240698	         43.09539142	         -0.41662987	          0.00000000	         -0.05298610	         -0.04721388	          0.37024364	          0.03760189	          0.00009598	          0.00000000	          0.00009159	          0.00000000	          0.44267235	          0.00000000	          0.00000000	         -0.00920774	          0.00000000	
          2.87200000	         34.43312016	        693.59814230	         43.15769635	         -0.41620904	          0.00000000	         -0.05303316	         -0.04997402	          0.37886547	          0.03816696	          0.00009686	          0.00000000	          0.00009183	          0.00000000	          0.45244562	          0.00000000	          0.00000000	         -0.00915855	          0.00000000	
          2.87300000	         34.77381510	        694.96846711	         43.22086661	         -0.41578422	          0.00000000	         -0.05308078	         -0.05278425	          0.38672380	          0.03862691	          0.00009743	          0.00000000	          0.00009172	          0.00000000	          0.46239183	          0.00000000	          0.00000000	         -0.00906698	          0.00000000	
          2.87400000	         35.11141406	        696.33289134	         43.28478388	         -0.41535543	          0.00000000	         -0.05312895	         -0.05563764	          0.39371524	          0.03897008	          0.00009764	          0.00000000	          0.00009121	          0.00000000	          0.47249847	          0.00000000	          0.00000000	         -0.00892945	          0.00000000	
          2.87500000	         35.44581364	        697.69092750	         43.34932600	         -0.41492267	          0.00000000	         -0.05317762	         -0.05852639	          0.39973035	          0.03918419	          0.00009747	          0.00000000	          0.00009028	          0.00000000	          0.48275335	          0.00000000	          0.00000000	         -0.00874226	          0.00000000	
          2.87600000	         35.77691559	        699.04209100	         43.41436778	         -0.41448599	          0.00000000	         -0.05322678	         -0.06144188	          0.40465356	          0.03925638	          0.00009688	          0.00000000	          0.00008889	          0.00000000	          0.49314461	          0.00000000	          0.00000000	         -0.00850157	          0.00000000	
          2.87700000	         36.10462682	        700.38590014	         43.47978161	         -0.41404542	          0.00000000	         -0.05327641	         -0.06437453	          0.40836308	          0.03917315	          0.00009584	          0.00000000	          0.00008700	          0.00000000	          0.50366052	          0.00000000	          0.00000000	         -0.00820340	          0.00000000	
          2.87800000	         36.42885973	        701.72187633	         43.54543804	         -0.41360099	          0.00000000	         -0.05332648	         -0.06731384	          0.41073080	          0.03892040	          0.00009430	          0.00000000	          0.00008458	          0.00000000	          0.51428940	          0.00000000	          0.00000000	         -0.00784365	          0.00000000	
